<svg xmlns="http://www.w3.org/2000/svg" xmlns:xlink="http://www.w3.org/1999/xlink" width="416" zoomAndPan="magnify" viewBox="0 0 312 56.999997" height="76" preserveAspectRatio="xMidYMid meet" version="1.0"><defs><g/><clipPath id="a89a449f27"><path d="M 0 0 L 312 0 L 312 57 L 0 57 Z M 0 0 " clip-rule="nonzero"/></clipPath><clipPath id="7cc6c1c445"><path d="M 0 0 L 312 0 L 312 56.804688 L 0 56.804688 Z M 0 0 " clip-rule="nonzero"/></clipPath><clipPath id="8c35c86117"><path d="M 0 0 L 312 0 L 312 56.804688 L 0 56.804688 Z M 0 0 " clip-rule="nonzero"/></clipPath><clipPath id="cdb530cdf0"><rect x="0" width="312" y="0" height="57"/></clipPath><clipPath id="4bf73553f3"><path d="M 15.714844 6.84375 L 198.554688 6.84375 L 198.554688 51.023438 L 15.714844 51.023438 Z M 15.714844 6.84375 " clip-rule="nonzero"/></clipPath><clipPath id="b63f22e0fe"><path d="M 0.714844 0.84375 L 183.554688 0.84375 L 183.554688 45.023438 L 0.714844 45.023438 Z M 0.714844 0.84375 " clip-rule="nonzero"/></clipPath><clipPath id="e81986cf0b"><rect x="0" width="184" y="0" height="46"/></clipPath><clipPath id="c07e5b2691"><rect x="0" width="312" y="0" height="57"/></clipPath><clipPath id="7f70d75abf"><rect x="0" width="312" y="0" height="57"/></clipPath></defs><rect x="-31.2" width="374.4" fill="#ffffff" y="-5.7" height="68.399996" fill-opacity="1"/><g transform="matrix(1, 0, 0, 1, 0, -0.000000000000003472)"><g clip-path="url(#7f70d75abf)"><g clip-path="url(#a89a449f27)"><rect x="-68.64" width="449.28" fill="#ffffff" height="82.079996" y="-12.539999" fill-opacity="1"/></g><g transform="matrix(1, 0, 0, 1, 0, -0.000000000000003472)"><g clip-path="url(#c07e5b2691)"><g clip-path="url(#7cc6c1c445)"><g transform="matrix(1, 0, 0, 1, 0, -0.000000000000003472)"><g clip-path="url(#cdb530cdf0)"><g clip-path="url(#8c35c86117)"><path fill="#000000" d="M 0 0 L 311.984375 0 L 311.984375 56.804688 L 0 56.804688 Z M 0 0 " fill-opacity="1" fill-rule="nonzero"/></g></g></g></g><g clip-path="url(#4bf73553f3)"><g transform="matrix(1, 0, 0, 1, 15, 6)"><g clip-path="url(#e81986cf0b)"><g clip-path="url(#b63f22e0fe)"><path fill="#dadada" d="M 0.714844 0.84375 L 183.480469 0.84375 L 183.480469 45.023438 L 0.714844 45.023438 Z M 0.714844 0.84375 " fill-opacity="1" fill-rule="nonzero"/></g></g></g></g><g fill="#000000" fill-opacity="1"><g transform="translate(25.607802, 39.712847)"><g><path d="M 17.046875 -15.5 C 16.640625 -16.257812 16.050781 -16.835938 15.28125 -17.234375 C 14.519531 -17.628906 13.625 -17.828125 12.59375 -17.828125 C 10.8125 -17.828125 9.378906 -17.238281 8.296875 -16.0625 C 7.222656 -14.894531 6.6875 -13.332031 6.6875 -11.375 C 6.6875 -9.28125 7.25 -7.644531 8.375 -6.46875 C 9.507812 -5.300781 11.066406 -4.71875 13.046875 -4.71875 C 14.398438 -4.71875 15.546875 -5.0625 16.484375 -5.75 C 17.421875 -6.4375 18.101562 -7.425781 18.53125 -8.71875 L 11.53125 -8.71875 L 11.53125 -12.796875 L 23.546875 -12.796875 L 23.546875 -7.65625 C 23.140625 -6.28125 22.441406 -5 21.453125 -3.8125 C 20.472656 -2.625 19.226562 -1.664062 17.71875 -0.9375 C 16.21875 -0.207031 14.519531 0.15625 12.625 0.15625 C 10.382812 0.15625 8.382812 -0.332031 6.625 -1.3125 C 4.875 -2.289062 3.507812 -3.648438 2.53125 -5.390625 C 1.550781 -7.140625 1.0625 -9.132812 1.0625 -11.375 C 1.0625 -13.613281 1.550781 -15.609375 2.53125 -17.359375 C 3.507812 -19.109375 4.867188 -20.472656 6.609375 -21.453125 C 8.359375 -22.441406 10.351562 -22.9375 12.59375 -22.9375 C 15.3125 -22.9375 17.597656 -22.273438 19.453125 -20.953125 C 21.316406 -19.640625 22.550781 -17.820312 23.15625 -15.5 Z M 17.046875 -15.5 "/></g></g></g><g fill="#000000" fill-opacity="1"><g transform="translate(50.22101, 39.712847)"><g><path d="M 16.109375 -4 L 7.65625 -4 L 6.296875 0 L 0.515625 0 L 8.71875 -22.671875 L 15.109375 -22.671875 L 23.3125 0 L 17.46875 0 Z M 14.6875 -8.265625 L 11.890625 -16.5625 L 9.109375 -8.265625 Z M 14.6875 -8.265625 "/></g></g></g><g fill="#000000" fill-opacity="1"><g transform="translate(74.026701, 39.712847)"><g><path d="M 10.5 -22.671875 C 12.882812 -22.671875 14.96875 -22.195312 16.75 -21.25 C 18.539062 -20.300781 19.925781 -18.96875 20.90625 -17.25 C 21.882812 -15.539062 22.375 -13.570312 22.375 -11.34375 C 22.375 -9.125 21.882812 -7.148438 20.90625 -5.421875 C 19.925781 -3.703125 18.535156 -2.367188 16.734375 -1.421875 C 14.941406 -0.472656 12.863281 0 10.5 0 L 2 0 L 2 -22.671875 Z M 10.140625 -4.78125 C 12.234375 -4.78125 13.859375 -5.347656 15.015625 -6.484375 C 16.179688 -7.628906 16.765625 -9.25 16.765625 -11.34375 C 16.765625 -13.425781 16.179688 -15.046875 15.015625 -16.203125 C 13.859375 -17.367188 12.234375 -17.953125 10.140625 -17.953125 L 7.53125 -17.953125 L 7.53125 -4.78125 Z M 10.140625 -4.78125 "/></g></g></g><g fill="#000000" fill-opacity="1"><g transform="translate(97.509389, 39.712847)"><g><path d="M 17.046875 -15.5 C 16.640625 -16.257812 16.050781 -16.835938 15.28125 -17.234375 C 14.519531 -17.628906 13.625 -17.828125 12.59375 -17.828125 C 10.8125 -17.828125 9.378906 -17.238281 8.296875 -16.0625 C 7.222656 -14.894531 6.6875 -13.332031 6.6875 -11.375 C 6.6875 -9.28125 7.25 -7.644531 8.375 -6.46875 C 9.507812 -5.300781 11.066406 -4.71875 13.046875 -4.71875 C 14.398438 -4.71875 15.546875 -5.0625 16.484375 -5.75 C 17.421875 -6.4375 18.101562 -7.425781 18.53125 -8.71875 L 11.53125 -8.71875 L 11.53125 -12.796875 L 23.546875 -12.796875 L 23.546875 -7.65625 C 23.140625 -6.28125 22.441406 -5 21.453125 -3.8125 C 20.472656 -2.625 19.226562 -1.664062 17.71875 -0.9375 C 16.21875 -0.207031 14.519531 0.15625 12.625 0.15625 C 10.382812 0.15625 8.382812 -0.332031 6.625 -1.3125 C 4.875 -2.289062 3.507812 -3.648438 2.53125 -5.390625 C 1.550781 -7.140625 1.0625 -9.132812 1.0625 -11.375 C 1.0625 -13.613281 1.550781 -15.609375 2.53125 -17.359375 C 3.507812 -19.109375 4.867188 -20.472656 6.609375 -21.453125 C 8.359375 -22.441406 10.351562 -22.9375 12.59375 -22.9375 C 15.3125 -22.9375 17.597656 -22.273438 19.453125 -20.953125 C 21.316406 -19.640625 22.550781 -17.820312 23.15625 -15.5 Z M 17.046875 -15.5 "/></g></g></g><g fill="#000000" fill-opacity="1"><g transform="translate(122.122597, 39.712847)"><g><path d="M 7.53125 -18.25 L 7.53125 -13.65625 L 14.921875 -13.65625 L 14.921875 -9.390625 L 7.53125 -9.390625 L 7.53125 -4.421875 L 15.890625 -4.421875 L 15.890625 0 L 2 0 L 2 -22.671875 L 15.890625 -22.671875 L 15.890625 -18.25 Z M 7.53125 -18.25 "/></g></g></g><g fill="#000000" fill-opacity="1"><g transform="translate(139.59734, 39.712847)"><g><path d="M 18.3125 -22.671875 L 18.3125 -18.25 L 12.3125 -18.25 L 12.3125 0 L 6.78125 0 L 6.78125 -18.25 L 0.78125 -18.25 L 0.78125 -22.671875 Z M 18.3125 -22.671875 "/></g></g></g><g fill="#000000" fill-opacity="1"><g transform="translate(158.687118, 39.712847)"><g><path d="M 10.203125 0.21875 C 8.546875 0.21875 7.0625 -0.046875 5.75 -0.578125 C 4.4375 -1.117188 3.382812 -1.914062 2.59375 -2.96875 C 1.8125 -4.019531 1.398438 -5.289062 1.359375 -6.78125 L 7.234375 -6.78125 C 7.316406 -5.9375 7.601562 -5.296875 8.09375 -4.859375 C 8.59375 -4.421875 9.242188 -4.203125 10.046875 -4.203125 C 10.859375 -4.203125 11.5 -4.390625 11.96875 -4.765625 C 12.445312 -5.140625 12.6875 -5.660156 12.6875 -6.328125 C 12.6875 -6.890625 12.5 -7.351562 12.125 -7.71875 C 11.75 -8.082031 11.285156 -8.382812 10.734375 -8.625 C 10.191406 -8.863281 9.410156 -9.132812 8.390625 -9.4375 C 6.929688 -9.882812 5.738281 -10.332031 4.8125 -10.78125 C 3.882812 -11.238281 3.085938 -11.90625 2.421875 -12.78125 C 1.753906 -13.664062 1.421875 -14.820312 1.421875 -16.25 C 1.421875 -18.351562 2.179688 -20.003906 3.703125 -21.203125 C 5.234375 -22.398438 7.226562 -23 9.6875 -23 C 12.1875 -23 14.195312 -22.398438 15.71875 -21.203125 C 17.25 -20.003906 18.070312 -18.34375 18.1875 -16.21875 L 12.203125 -16.21875 C 12.160156 -16.945312 11.890625 -17.519531 11.390625 -17.9375 C 10.898438 -18.363281 10.269531 -18.578125 9.5 -18.578125 C 8.832031 -18.578125 8.289062 -18.394531 7.875 -18.03125 C 7.46875 -17.675781 7.265625 -17.164062 7.265625 -16.5 C 7.265625 -15.769531 7.609375 -15.195312 8.296875 -14.78125 C 8.984375 -14.375 10.0625 -13.9375 11.53125 -13.46875 C 12.988281 -12.96875 14.175781 -12.492188 15.09375 -12.046875 C 16.007812 -11.597656 16.800781 -10.941406 17.46875 -10.078125 C 18.132812 -9.210938 18.46875 -8.101562 18.46875 -6.75 C 18.46875 -5.457031 18.140625 -4.28125 17.484375 -3.21875 C 16.828125 -2.164062 15.875 -1.328125 14.625 -0.703125 C 13.375 -0.0859375 11.898438 0.21875 10.203125 0.21875 Z M 10.203125 0.21875 "/></g></g></g><g fill="#ffffff" fill-opacity="1"><g transform="translate(209.668685, 39.712847)"><g><path d="M 7.875 -4.515625 L 17.640625 -4.515625 L 17.640625 0 L 1.609375 0 L 1.609375 -4.203125 L 11.296875 -18.15625 L 1.609375 -18.15625 L 1.609375 -22.671875 L 17.640625 -22.671875 L 17.640625 -18.46875 Z M 7.875 -4.515625 "/></g></g></g><g fill="#ffffff" fill-opacity="1"><g transform="translate(228.919975, 39.712847)"><g><path d="M 12.71875 0.21875 C 10.59375 0.21875 8.640625 -0.273438 6.859375 -1.265625 C 5.085938 -2.253906 3.675781 -3.632812 2.625 -5.40625 C 1.582031 -7.1875 1.0625 -9.1875 1.0625 -11.40625 C 1.0625 -13.625 1.582031 -15.613281 2.625 -17.375 C 3.675781 -19.144531 5.085938 -20.523438 6.859375 -21.515625 C 8.640625 -22.503906 10.59375 -23 12.71875 -23 C 14.851562 -23 16.804688 -22.503906 18.578125 -21.515625 C 20.359375 -20.523438 21.757812 -19.144531 22.78125 -17.375 C 23.800781 -15.613281 24.3125 -13.625 24.3125 -11.40625 C 24.3125 -9.1875 23.796875 -7.1875 22.765625 -5.40625 C 21.734375 -3.632812 20.332031 -2.253906 18.5625 -1.265625 C 16.800781 -0.273438 14.851562 0.21875 12.71875 0.21875 Z M 12.71875 -4.8125 C 14.53125 -4.8125 15.976562 -5.410156 17.0625 -6.609375 C 18.15625 -7.816406 18.703125 -9.414062 18.703125 -11.40625 C 18.703125 -13.40625 18.15625 -15 17.0625 -16.1875 C 15.976562 -17.382812 14.53125 -17.984375 12.71875 -17.984375 C 10.894531 -17.984375 9.4375 -17.390625 8.34375 -16.203125 C 7.257812 -15.023438 6.71875 -13.425781 6.71875 -11.40625 C 6.71875 -9.394531 7.257812 -7.789062 8.34375 -6.59375 C 9.4375 -5.40625 10.894531 -4.8125 12.71875 -4.8125 Z M 12.71875 -4.8125 "/></g></g></g><g fill="#ffffff" fill-opacity="1"><g transform="translate(254.308403, 39.712847)"><g><path d="M 22.28125 0 L 16.765625 0 L 7.53125 -13.984375 L 7.53125 0 L 2 0 L 2 -22.671875 L 7.53125 -22.671875 L 16.765625 -8.625 L 16.765625 -22.671875 L 22.28125 -22.671875 Z M 22.28125 0 "/></g></g></g><g fill="#ffffff" fill-opacity="1"><g transform="translate(278.598607, 39.712847)"><g><path d="M 7.53125 -18.25 L 7.53125 -13.65625 L 14.921875 -13.65625 L 14.921875 -9.390625 L 7.53125 -9.390625 L 7.53125 -4.421875 L 15.890625 -4.421875 L 15.890625 0 L 2 0 L 2 -22.671875 L 15.890625 -22.671875 L 15.890625 -18.25 Z M 7.53125 -18.25 "/></g></g></g></g></g></g></g></svg>